<svg width="41" height="41" viewBox="0 0 41 41" fill="none" xmlns="http://www.w3.org/2000/svg">
<path d="M7.86042 30.8292C9.59583 29.5021 11.5354 28.4554 13.6792 27.6891C15.8229 26.9228 18.0687 26.5403 20.4167 26.5417C22.7646 26.5417 25.0104 26.9248 27.1542 27.6911C29.2979 28.4574 31.2375 29.5034 32.9729 30.8292C34.1639 29.434 35.0915 27.8517 35.7557 26.0823C36.4199 24.3128 36.7514 22.4243 36.75 20.4167C36.75 15.891 35.1595 12.037 31.9786 8.85471C28.7977 5.67243 24.9437 4.08197 20.4167 4.08333C15.891 4.08333 12.037 5.67379 8.85471 8.85471C5.67243 12.0356 4.08197 15.8896 4.08333 20.4167C4.08333 22.4243 4.41544 24.3128 5.07967 26.0823C5.74389 27.8517 6.6708 29.434 7.86042 30.8292ZM20.4167 22.4583C18.409 22.4583 16.7158 21.7696 15.337 20.3922C13.9582 19.0147 13.2695 17.3215 13.2708 15.3125C13.2708 13.3049 13.9596 11.6116 15.337 10.2328C16.7144 8.85403 18.4077 8.16531 20.4167 8.16667C22.4243 8.16667 24.1175 8.85539 25.4963 10.2328C26.8751 11.6103 27.5639 13.3035 27.5625 15.3125C27.5625 17.3201 26.8738 19.0134 25.4963 20.3922C24.1189 21.771 22.4257 22.4597 20.4167 22.4583ZM20.4167 40.8333C17.5924 40.8333 14.9382 40.2971 12.4542 39.2245C9.97014 38.1519 7.80937 36.6976 5.97187 34.8615C4.13438 33.024 2.68003 30.8632 1.60883 28.3792C0.537639 25.8951 0.00136111 23.241 0 20.4167C0 17.5924 0.536278 14.9382 1.60883 12.4542C2.68139 9.97014 4.13574 7.80937 5.97187 5.97187C7.80937 4.13438 9.97014 2.68003 12.4542 1.60883C14.9382 0.537639 17.5924 0.00136111 20.4167 0C23.241 0 25.8951 0.536278 28.3792 1.60883C30.8632 2.68139 33.024 4.13574 34.8615 5.97187C36.699 7.80937 38.154 9.97014 39.2265 12.4542C40.2991 14.9382 40.8347 17.5924 40.8333 20.4167C40.8333 23.241 40.2971 25.8951 39.2245 28.3792C38.1519 30.8632 36.6976 33.024 34.8615 34.8615C33.024 36.699 30.8632 38.154 28.3792 39.2265C25.8951 40.2991 23.241 40.8347 20.4167 40.8333Z" fill="#1D71B8"/>
</svg>
