<svg width="49" height="44" viewBox="0 0 49 44" fill="none" xmlns="http://www.w3.org/2000/svg">
<path d="M35.8653 15.9763C35.8112 15.9113 35.7435 15.8591 35.667 15.8232C35.5905 15.7873 35.5071 15.7687 35.4225 15.7686H11.6739L10.8836 11.4205C10.8109 11.0218 10.6007 10.6612 10.2894 10.4016C9.9781 10.142 9.58557 9.99986 9.18023 10H6.57691C6.42391 10 6.27717 10.0608 6.16897 10.169C6.06078 10.2771 6 10.4239 6 10.5769C6 10.7299 6.06078 10.8766 6.16897 10.9848C6.27717 11.0929 6.42391 11.1537 6.57691 11.1537H9.17302C9.30963 11.1515 9.44259 11.1978 9.54824 11.2844C9.65388 11.3711 9.72536 11.4924 9.74993 11.6267L13.4278 31.8601C13.5564 32.5636 13.942 33.1943 14.5095 33.6296C13.9144 34.0131 13.4512 34.5699 13.1824 35.2248C12.9136 35.8797 12.8521 36.6013 13.0063 37.2923C13.1604 37.9832 13.5227 38.6103 14.0443 39.089C14.566 39.5676 15.2218 39.8748 15.9235 39.9691C16.6252 40.0635 17.3389 39.9404 17.9685 39.6165C18.598 39.2926 19.1131 38.7834 19.4442 38.1577C19.7754 37.532 19.9067 36.8198 19.8204 36.1171C19.7341 35.4145 19.4345 34.7551 18.9618 34.2281H27.653C27.1245 34.8189 26.8149 35.5731 26.7757 36.3647C26.7366 37.1564 26.9704 37.9375 27.4381 38.5774C27.9057 39.2174 28.5789 39.6775 29.345 39.8809C30.1112 40.0842 30.9239 40.0184 31.6474 39.6946C32.3709 39.3707 32.9613 38.8084 33.3199 38.1015C33.6786 37.3947 33.7837 36.5862 33.6178 35.8112C33.4519 35.0361 33.025 34.3415 32.4085 33.8433C31.7919 33.3452 31.023 33.0738 30.2303 33.0744H16.2647C15.8596 33.0742 15.4674 32.9319 15.1565 32.6723C14.8455 32.4128 14.6354 32.0524 14.5628 31.6539L13.9859 28.4595H31.3986C32.0741 28.4596 32.7283 28.2226 33.247 27.7899C33.7657 27.3571 34.1161 26.7561 34.237 26.0915L35.9908 16.4493C36.0058 16.3661 36.0024 16.2806 35.9807 16.1988C35.959 16.1171 35.9196 16.0411 35.8653 15.9763ZM18.6921 36.5355C18.6921 36.9919 18.5567 37.438 18.3032 37.8175C18.0496 38.1969 17.6892 38.4927 17.2675 38.6673C16.8459 38.842 16.3819 38.8877 15.9342 38.7986C15.4866 38.7096 15.0754 38.4898 14.7527 38.1671C14.4299 37.8444 14.2102 37.4333 14.1211 36.9857C14.0321 36.5381 14.0778 36.0741 14.2524 35.6525C14.4271 35.2309 14.7229 34.8705 15.1024 34.617C15.4819 34.3634 15.928 34.2281 16.3844 34.2281C16.9965 34.2281 17.5834 34.4712 18.0162 34.9039C18.449 35.3367 18.6921 35.9236 18.6921 36.5355ZM32.538 36.5355C32.538 36.9919 32.4026 37.438 32.1491 37.8175C31.8955 38.1969 31.5351 38.4927 31.1134 38.6673C30.6918 38.842 30.2278 38.8877 29.7801 38.7986C29.3325 38.7096 28.9213 38.4898 28.5986 38.1671C28.2758 37.8444 28.0561 37.4333 27.967 36.9857C27.878 36.5381 27.9237 36.0741 28.0983 35.6525C28.273 35.2309 28.5688 34.8705 28.9483 34.617C29.3278 34.3634 29.7739 34.2281 30.2303 34.2281C30.8424 34.2281 31.4293 34.4712 31.8621 34.9039C32.2949 35.3367 32.538 35.9236 32.538 36.5355ZM33.1019 25.8853C33.0293 26.284 32.819 26.6446 32.5077 26.9042C32.1964 27.1638 31.8039 27.3059 31.3986 27.3058H13.771L11.8831 16.9223H34.7317L33.1019 25.8853Z" fill="black" fill-opacity="0.5"/>
<path d="M37.4984 12.1918C36.7654 12.1889 36.1348 12.0085 35.6064 11.6506C35.0808 11.2926 34.676 10.7741 34.3919 10.0952C34.1106 9.41619 33.9714 8.59943 33.9743 7.64489C33.9743 6.69318 34.1149 5.8821 34.3961 5.21165C34.6802 4.54119 35.085 4.03125 35.6106 3.68182C36.139 3.32955 36.7683 3.15341 37.4984 3.15341C38.2285 3.15341 38.8564 3.32955 39.3819 3.68182C39.9103 4.03409 40.3166 4.54545 40.6007 5.21591C40.8848 5.88352 41.0254 6.69318 41.0226 7.64489C41.0226 8.60227 40.8805 9.42045 40.5964 10.0994C40.3152 10.7784 39.9118 11.2969 39.3862 11.6548C38.8606 12.0128 38.2314 12.1918 37.4984 12.1918ZM37.4984 10.6619C37.9984 10.6619 38.3975 10.4105 38.6958 9.90767C38.9941 9.40483 39.1419 8.65057 39.139 7.64489C39.139 6.98295 39.0708 6.43182 38.9345 5.99148C38.801 5.55114 38.6106 5.22017 38.3635 4.99858C38.1191 4.77699 37.8308 4.66619 37.4984 4.66619C37.0012 4.66619 36.6035 4.91477 36.3052 5.41193C36.0069 5.90909 35.8564 6.65341 35.8535 7.64489C35.8535 8.31534 35.9203 8.875 36.0538 9.32386C36.1902 9.76989 36.3819 10.1051 36.6291 10.3295C36.8762 10.5511 37.166 10.6619 37.4984 10.6619Z" fill="#979797"/>
</svg>
